<svg width="78" height="77" viewBox="0 0 78 77" fill="none" xmlns="http://www.w3.org/2000/svg">
<rect x="0.600098" y="0.257812" width="76.8" height="76.7188" rx="15.3519" fill="#6750A4"/>
<path d="M28.5767 32.2271L19.8096 37.7007V39.5399L28.5767 45.0136L29.7164 43.1744L22.4397 38.6203L29.7164 34.0662L28.5767 32.2271Z" fill="white"/>
<path d="M49.4425 32.2271L48.3027 34.0662L55.5794 38.6203L48.3027 43.1744L49.4425 45.0136L58.2096 39.5399V37.7007L49.4425 32.2271Z" fill="white"/>
<path d="M39.0097 40.8101C40.2201 40.8101 41.2014 39.8298 41.2014 38.6206C41.2014 37.4114 40.2201 36.4312 39.0097 36.4312C37.7992 36.4312 36.8179 37.4114 36.8179 38.6206C36.8179 39.8298 37.7992 40.8101 39.0097 40.8101Z" fill="white"/>
<path d="M45.5848 40.8101C46.7953 40.8101 47.7766 39.8298 47.7766 38.6206C47.7766 37.4114 46.7953 36.4312 45.5848 36.4312C44.3744 36.4312 43.3931 37.4114 43.3931 38.6206C43.3931 39.8298 44.3744 40.8101 45.5848 40.8101Z" fill="white"/>
<path d="M32.4342 40.8101C33.6447 40.8101 34.626 39.8298 34.626 38.6206C34.626 37.4114 33.6447 36.4312 32.4342 36.4312C31.2237 36.4312 30.2424 37.4114 30.2424 38.6206C30.2424 39.8298 31.2237 40.8101 32.4342 40.8101Z" fill="white"/>
</svg>
