<svg width="24" height="24" viewBox="0 0 24 24" fill="none" xmlns="http://www.w3.org/2000/svg">
<g id="call">
<mask id="mask0_66_1094" style="mask-type:alpha" maskUnits="userSpaceOnUse" x="0" y="0" width="24" height="24">
<rect id="Bounding box" width="24" height="24" fill="#D9D9D9"/>
</mask>
<g mask="url(#mask0_66_1094)">
<path id="call_2" d="M19.95 21C17.8 21 15.7042 20.5208 13.6625 19.5625C11.6208 18.6042 9.8125 17.3375 8.2375 15.7625C6.6625 14.1875 5.39583 12.3792 4.4375 10.3375C3.47917 8.29583 3 6.2 3 4.05C3 3.75 3.1 3.5 3.3 3.3C3.5 3.1 3.75 3 4.05 3H8.1C8.33333 3 8.54167 3.075 8.725 3.225C8.90833 3.375 9.01667 3.56667 9.05 3.8L9.7 7.3C9.73333 7.53333 9.72917 7.74583 9.6875 7.9375C9.64583 8.12917 9.55 8.3 9.4 8.45L6.975 10.9C7.675 12.1 8.55417 13.225 9.6125 14.275C10.6708 15.325 11.8333 16.2333 13.1 17L15.45 14.65C15.6 14.5 15.7958 14.3875 16.0375 14.3125C16.2792 14.2375 16.5167 14.2167 16.75 14.25L20.2 14.95C20.4333 15 20.625 15.1125 20.775 15.2875C20.925 15.4625 21 15.6667 21 15.9V19.95C21 20.25 20.9 20.5 20.7 20.7C20.5 20.9 20.25 21 19.95 21ZM6.025 9L7.675 7.35L7.25 5H5.025C5.10833 5.68333 5.225 6.35833 5.375 7.025C5.525 7.69167 5.74167 8.35 6.025 9ZM14.975 17.95C15.625 18.2333 16.2875 18.4583 16.9625 18.625C17.6375 18.7917 18.3167 18.9 19 18.95V16.75L16.65 16.275L14.975 17.95Z" fill="#49454F"/>
</g>
</g>
</svg>
