<svg width="18" height="18" viewBox="0 0 18 18" fill="none" xmlns="http://www.w3.org/2000/svg">
<g id="captive_portal">
<mask id="mask0_66_991" style="mask-type:alpha" maskUnits="userSpaceOnUse" x="0" y="0" width="18" height="18">
<rect id="Bounding box" width="18" height="18" fill="#D9D9D9"/>
</mask>
<g mask="url(#mask0_66_991)">
<path id="captive_portal_2" d="M7.05 14.6625C6.825 14.25 6.62813 13.8219 6.45938 13.3781C6.29063 12.9344 6.15 12.475 6.0375 12H3.825C4.1875 12.625 4.64062 13.1688 5.18437 13.6313C5.72813 14.0938 6.35 14.4375 7.05 14.6625ZM3.1875 10.5H5.7375C5.7 10.25 5.67188 10.0031 5.65312 9.75937C5.63438 9.51562 5.625 9.2625 5.625 9C5.625 8.7375 5.63438 8.48438 5.65312 8.24063C5.67188 7.99688 5.7 7.75 5.7375 7.5H3.1875C3.125 7.75 3.07812 7.99688 3.04688 8.24063C3.01562 8.48438 3 8.7375 3 9C3 9.2625 3.01562 9.51562 3.04688 9.75937C3.07812 10.0031 3.125 10.25 3.1875 10.5ZM3.825 6H6.0375C6.15 5.525 6.29063 5.06562 6.45938 4.62187C6.62813 4.17812 6.825 3.75 7.05 3.3375C6.35 3.5625 5.72813 3.90625 5.18437 4.36875C4.64062 4.83125 4.1875 5.375 3.825 6ZM7.575 6H10.425C10.275 5.45 10.0813 4.93125 9.84375 4.44375C9.60625 3.95625 9.325 3.4875 9 3.0375C8.675 3.4875 8.39375 3.95625 8.15625 4.44375C7.91875 4.93125 7.725 5.45 7.575 6ZM11.9625 6H14.175C13.8125 5.375 13.3594 4.83125 12.8156 4.36875C12.2719 3.90625 11.65 3.5625 10.95 3.3375C11.175 3.75 11.3719 4.17812 11.5406 4.62187C11.7094 5.06562 11.85 5.525 11.9625 6ZM9 16.5C7.975 16.5 7.00625 16.3031 6.09375 15.9094C5.18125 15.5156 4.38438 14.9781 3.70312 14.2969C3.02188 13.6156 2.48438 12.8188 2.09063 11.9062C1.69687 10.9937 1.5 10.025 1.5 9C1.5 7.9625 1.69687 6.99063 2.09063 6.08438C2.48438 5.17813 3.02188 4.38438 3.70312 3.70312C4.38438 3.02188 5.18125 2.48438 6.09375 2.09063C7.00625 1.69687 7.975 1.5 9 1.5C10.0375 1.5 11.0094 1.69687 11.9156 2.09063C12.8219 2.48438 13.6156 3.02188 14.2969 3.70312C14.9781 4.38438 15.5156 5.17813 15.9094 6.08438C16.3031 6.99063 16.5 7.9625 16.5 9C16.5 9.125 16.4969 9.25 16.4906 9.375C16.4844 9.5 16.475 9.625 16.4625 9.75H14.9438C14.9688 9.625 14.9844 9.50313 14.9906 9.38437C14.9969 9.26562 15 9.1375 15 9C15 8.7375 14.9844 8.48438 14.9531 8.24063C14.9219 7.99688 14.875 7.75 14.8125 7.5H12.2625C12.3 7.75 12.3281 7.99688 12.3469 8.24063C12.3656 8.48438 12.375 8.7375 12.375 9V9.38437C12.375 9.50313 12.3688 9.625 12.3563 9.75H10.8563C10.8688 9.625 10.875 9.50313 10.875 9.38437V9C10.875 8.7375 10.8656 8.48438 10.8469 8.24063C10.8281 7.99688 10.8 7.75 10.7625 7.5H7.2375C7.2 7.75 7.17188 7.99688 7.15312 8.24063C7.13438 8.48438 7.125 8.7375 7.125 9C7.125 9.2625 7.13438 9.51562 7.15312 9.75937C7.17188 10.0031 7.2 10.25 7.2375 10.5H9.75V12H7.575C7.725 12.55 7.91875 13.0688 8.15625 13.5563C8.39375 14.0438 8.675 14.5125 9 14.9625C9.1375 14.7625 9.26875 14.5594 9.39375 14.3531C9.51875 14.1469 9.6375 13.9375 9.75 13.725V16.4625C9.625 16.475 9.50313 16.4844 9.38437 16.4906C9.26562 16.4969 9.1375 16.5 9 16.5ZM12.75 13.8188V14.7375C12.75 14.95 12.6781 15.1281 12.5344 15.2719C12.3906 15.4156 12.2125 15.4875 12 15.4875C11.7875 15.4875 11.6094 15.4156 11.4656 15.2719C11.3219 15.1281 11.25 14.95 11.25 14.7375V12C11.25 11.7875 11.3219 11.6094 11.4656 11.4656C11.6094 11.3219 11.7875 11.25 12 11.25H14.7375C14.95 11.25 15.1281 11.3219 15.2719 11.4656C15.4156 11.6094 15.4875 11.7875 15.4875 12C15.4875 12.2125 15.4156 12.3906 15.2719 12.5344C15.1281 12.6781 14.95 12.75 14.7375 12.75H13.8L15.4875 14.4375C15.625 14.575 15.6938 14.7469 15.6938 14.9531C15.6938 15.1594 15.625 15.3375 15.4875 15.4875C15.3375 15.6375 15.1594 15.7125 14.9531 15.7125C14.7469 15.7125 14.5688 15.6375 14.4188 15.4875L12.75 13.8188Z" fill="#49454F"/>
</g>
</g>
</svg>
