<svg width="28" height="28" viewBox="0 0 28 28" fill="none" xmlns="http://www.w3.org/2000/svg">
<g clip-path="url(#clip0_65_801)">
<path d="M14 0.583374C6.265 0.583374 0 6.74337 0 14.3407C0 20.4202 4.011 25.5757 9.5725 27.3934C10.2725 27.5229 10.5292 27.097 10.5292 26.7319C10.5292 26.4052 10.5175 25.5395 10.5117 24.3927C6.61733 25.2222 5.796 22.547 5.796 22.547C5.159 20.9592 4.2385 20.5345 4.2385 20.5345C2.97033 19.6817 4.3365 19.6992 4.3365 19.6992C5.74233 19.7949 6.48083 21.1167 6.48083 21.1167C7.72917 23.2202 9.758 22.6124 10.5583 22.2612C10.6843 21.371 11.0448 20.7655 11.445 20.4214C8.33583 20.0772 5.068 18.8942 5.068 13.6232C5.068 12.1217 5.6105 10.8944 6.50883 9.93187C6.35133 9.58421 5.87883 8.18537 6.63133 6.29071C6.63133 6.29071 7.80383 5.92204 10.4813 7.70121C11.6013 7.39554 12.7913 7.24387 13.9813 7.23687C15.1713 7.24387 16.3613 7.39554 17.4813 7.70121C20.1413 5.92204 21.3138 6.29071 21.3138 6.29071C22.0663 8.18537 21.5938 9.58421 21.4538 9.93187C22.3463 10.8944 22.8888 12.1217 22.8888 13.6232C22.8888 18.9082 19.6163 20.0714 16.5013 20.4097C16.9913 20.8227 17.4463 21.6662 17.4463 22.9554C17.4463 24.7964 17.4288 26.2757 17.4288 26.7225C17.4288 27.083 17.6738 27.5135 18.3913 27.3759C23.9925 25.5699 28 20.4109 28 14.3407C28 6.74337 21.7315 0.583374 14 0.583374Z" fill="#333333"/>
</g>
<defs>
<clipPath id="clip0_65_801">
<rect width="28" height="28" fill="white"/>
</clipPath>
</defs>
</svg>
