<svg width="28" height="28" viewBox="0 0 28 28" fill="none" xmlns="http://www.w3.org/2000/svg">
<g id="Frame" clip-path="url(#clip0_66_1029)">
<g id="Group">
<path id="Vector" d="M1.76292 0.926912L3.58017 24.1754C3.59352 24.3461 3.6575 24.5089 3.76393 24.643C3.87036 24.7771 4.01439 24.8763 4.17758 24.9281L13.74 27.9598C13.9091 28.0134 14.0907 28.0134 14.2598 27.9598L23.8222 24.9281C23.9854 24.8763 24.1294 24.7771 24.2359 24.643C24.3423 24.5089 24.4063 24.3461 24.4196 24.1754L26.2369 0.926912C26.276 0.427081 25.8809 0 25.3796 0H2.62024C2.11892 0 1.7239 0.427081 1.76292 0.926912ZM21.5767 8.14015H9.73325L10.0907 11.4361H21.3191L20.5845 20.8325L13.9999 22.9201L7.41532 20.8325L7.03158 15.9234H10.4877V18.3314L14.0923 19.2988L17.6753 18.3314L17.9533 14.4938H6.91981L6.18729 5.12207H21.8125L21.5767 8.14015Z" fill="#FC490B"/>
</g>
</g>
<defs>
<clipPath id="clip0_66_1029">
<rect width="28" height="28" fill="white"/>
</clipPath>
</defs>
</svg>
