<svg width="24" height="24" viewBox="0 0 24 24" fill="none" xmlns="http://www.w3.org/2000/svg">
  <g clip-path="url(#clip0_66_1657)">
    <mask id="mask0_66_1657" style="mask-type:luminance" maskUnits="userSpaceOnUse" x="0" y="0"
      width="24" height="24">
      <path d="M0 7.05719e-05H23.9999V24H0V7.05719e-05Z" fill="white" />
    </mask>
    <g mask="url(#mask0_66_1657)">
      <path
        d="M23.062 12C23.0596 12.9866 23.0485 13.9731 23.035 14.9596C23.0187 16.1498 23.0003 17.3405 22.7018 18.5103C22.3888 19.7371 21.7715 20.795 20.811 21.5783C19.7989 22.4036 18.5755 22.8375 17.2552 22.9178C15.5039 23.0243 13.7519 23.0664 12 23.0622C10.248 23.0664 8.496 23.0243 6.7448 22.9178C5.42443 22.8375 4.20109 22.4036 3.18897 21.5783C2.2285 20.795 1.61116 19.7371 1.29813 18.5103C0.999629 17.3405 0.981255 16.1498 0.964989 14.9596C0.951489 13.9731 0.940285 12.9866 0.937988 12C0.940285 11.0135 0.951489 10.0269 0.964989 9.04045C0.981255 7.85025 0.999629 6.65954 1.29813 5.48973C1.61116 4.26301 2.2285 3.20505 3.18897 2.42182C4.20109 1.59644 5.42443 1.16262 6.7448 1.08232C8.496 0.97582 10.248 0.933726 12 0.937851C13.7519 0.933726 15.5039 0.97582 17.2552 1.08232C18.5755 1.16262 19.7989 1.59644 20.811 2.42182C21.7715 3.20505 22.3888 4.26301 22.7018 5.48973C23.0003 6.65954 23.0187 7.85025 23.035 9.04045C23.0485 10.0269 23.0596 11.0135 23.062 12Z"
        style="stroke: var(--on-surface-variant)" stroke-width="1.5" stroke-miterlimit="10" />
      <path
        d="M16.875 12C16.875 14.7183 14.6714 16.9219 11.9531 16.9219C9.23484 16.9219 7.03125 14.7183 7.03125 12C7.03125 9.28174 9.23484 7.07815 11.9531 7.07815C14.6714 7.07815 16.875 9.28174 16.875 12Z"
        style="stroke: var(--on-surface-variant)" stroke-width="1.5" stroke-miterlimit="10" />
      <path
        d="M19.875 5.67188C19.875 6.4485 19.2454 7.07812 18.4687 7.07812C17.6921 7.07812 17.0625 6.4485 17.0625 5.67188C17.0625 4.89526 17.6921 4.26563 18.4687 4.26563C19.2454 4.26563 19.875 4.89526 19.875 5.67188Z"
        style="fill: var(--on-surface-variant)" />
    </g>
  </g>
  <defs>
    <clipPath id="clip0_66_1657">
      <rect width="24" height="24" fill="white" />
    </clipPath>
  </defs>
</svg>