<svg width="28" height="28" viewBox="0 0 28 28" fill="none" xmlns="http://www.w3.org/2000/svg">
<g id="Frame" clip-path="url(#clip0_66_1040)">
<g id="Group">
<path id="Vector" d="M0 0H28V28H0V0Z" fill="#FFDF00"/>
<path id="Vector_2" d="M18.8088 21.875C19.3728 22.7959 20.1066 23.4728 21.4044 23.4728C22.4946 23.4728 23.191 22.9279 23.191 22.175C23.191 21.2727 22.4755 20.9532 21.2755 20.4283L20.6177 20.1461C18.719 19.3372 17.4577 18.3238 17.4577 16.1816C17.4577 14.2083 18.9613 12.7061 21.311 12.7061C22.9839 12.7061 24.1866 13.2883 25.0532 14.8127L23.0044 16.1283C22.5532 15.3194 22.0666 15.0007 21.311 15.0007C20.5404 15.0007 20.0519 15.4896 20.0519 16.1283C20.0519 16.9176 20.5408 17.2372 21.6697 17.7261L22.3274 18.0078C24.563 18.9665 25.8252 19.9438 25.8252 22.1412C25.8252 24.5101 23.9643 25.8079 21.4652 25.8079C19.0216 25.8079 17.443 24.6434 16.6705 23.1172L18.8088 21.875ZM9.5141 22.103C9.92742 22.8364 10.3035 23.4564 11.2074 23.4564C12.0719 23.4564 12.6172 23.1181 12.6172 21.803V12.8563H15.2484V21.8385C15.2484 24.563 13.651 25.803 11.3194 25.803C9.21277 25.803 7.9928 24.7128 7.37231 23.3996L9.5141 22.103Z" fill="#1D1B20"/>
</g>
</g>
<defs>
<clipPath id="clip0_66_1040">
<rect width="28" height="28" fill="white"/>
</clipPath>
</defs>
</svg>
