<svg width="18" height="18" viewBox="0 0 18 18" fill="none" xmlns="http://www.w3.org/2000/svg">
<g id="location_on">
<mask id="mask0_66_981" style="mask-type:alpha" maskUnits="userSpaceOnUse" x="0" y="0" width="18" height="18">
<rect id="Bounding box" width="18" height="18" fill="#D9D9D9"/>
</mask>
<g mask="url(#mask0_66_981)">
<path id="location_on_2" d="M9 14.5125C10.525 13.1125 11.6562 11.8406 12.3938 10.6969C13.1313 9.55312 13.5 8.5375 13.5 7.65C13.5 6.2875 13.0656 5.17188 12.1969 4.30312C11.3281 3.43438 10.2625 3 9 3C7.7375 3 6.67188 3.43438 5.80312 4.30312C4.93438 5.17188 4.5 6.2875 4.5 7.65C4.5 8.5375 4.86875 9.55312 5.60625 10.6969C6.34375 11.8406 7.475 13.1125 9 14.5125ZM9 15.9938C8.825 15.9938 8.65 15.9625 8.475 15.9C8.3 15.8375 8.14375 15.7438 8.00625 15.6188C7.19375 14.8688 6.475 14.1375 5.85 13.425C5.225 12.7125 4.70312 12.0219 4.28437 11.3531C3.86562 10.6844 3.54688 10.0406 3.32812 9.42188C3.10937 8.80312 3 8.2125 3 7.65C3 5.775 3.60312 4.28125 4.80938 3.16875C6.01563 2.05625 7.4125 1.5 9 1.5C10.5875 1.5 11.9844 2.05625 13.1906 3.16875C14.3969 4.28125 15 5.775 15 7.65C15 8.2125 14.8906 8.80312 14.6719 9.42188C14.4531 10.0406 14.1344 10.6844 13.7156 11.3531C13.2969 12.0219 12.775 12.7125 12.15 13.425C11.525 14.1375 10.8063 14.8688 9.99375 15.6188C9.85625 15.7438 9.7 15.8375 9.525 15.9C9.35 15.9625 9.175 15.9938 9 15.9938ZM9 9C9.4125 9 9.76563 8.85313 10.0594 8.55938C10.3531 8.26563 10.5 7.9125 10.5 7.5C10.5 7.0875 10.3531 6.73438 10.0594 6.44063C9.76563 6.14687 9.4125 6 9 6C8.5875 6 8.23438 6.14687 7.94063 6.44063C7.64687 6.73438 7.5 7.0875 7.5 7.5C7.5 7.9125 7.64687 8.26563 7.94063 8.55938C8.23438 8.85313 8.5875 9 9 9Z" fill="#49454F"/>
</g>
</g>
</svg>
