<svg width="28" height="28" viewBox="0 0 28 28" fill="none" xmlns="http://www.w3.org/2000/svg">
<g id="Frame" clip-path="url(#clip0_66_1054)">
<g id="Group">
<path id="Vector" fill-rule="evenodd" clip-rule="evenodd" d="M14.6638 0.177517C14.4624 0.0612232 14.2339 0 14.0013 0C13.7687 0 13.5402 0.0612232 13.3387 0.177517L2.36353 6.51099C2.16189 6.62725 1.99444 6.79458 1.87803 6.99613C1.76163 7.19768 1.70037 7.42634 1.70044 7.6591V20.3358C1.70044 20.8093 1.9531 21.2467 2.36309 21.4839L13.3382 27.8224C13.5398 27.9387 13.7685 28 14.0012 28C14.234 28 14.4626 27.9387 14.6642 27.8224L25.6368 21.4838C25.8382 21.3674 26.0055 21.2 26.1218 20.9984C26.2381 20.7969 26.2993 20.5684 26.2994 20.3357V7.6586C26.2994 7.18506 26.0467 6.74767 25.6364 6.51093L14.6638 0.177517Z" fill="url(#paint0_linear_66_1054)"/>
<path id="Vector_2" d="M25.6583 6.5111L14.6524 0.177629C14.5439 0.114902 14.4276 0.0700039 14.308 0.0405273L1.97314 21.141C2.07896 21.2977 2.18194 21.4037 2.32068 21.484L13.3452 27.8225C13.6575 28.0028 14.0286 28.045 14.3692 27.9508L25.9534 6.73816C25.8653 6.65005 25.7661 6.57373 25.6583 6.5111Z" fill="url(#paint1_linear_66_1054)"/>
<path id="Vector_3" d="M25.6644 21.4839C25.9842 21.2989 26.2107 20.9747 26.2741 20.5944L14.3079 0.0404633C13.9929 -0.0222633 13.5992 0.0138851 13.3157 0.177565L2.38379 6.47292L14.1934 27.9872C14.3619 27.9642 14.527 27.9097 14.6781 27.8225L25.6644 21.4839Z" fill="url(#paint2_linear_66_1054)"/>
</g>
</g>
<defs>
<linearGradient id="paint0_linear_66_1054" x1="18.4623" y1="4.8942" x2="8.54699" y2="25.1213" gradientUnits="userSpaceOnUse">
<stop stop-color="#3F873F"/>
<stop offset="0.33" stop-color="#3F8B3D"/>
<stop offset="0.637" stop-color="#3E9638"/>
<stop offset="0.934" stop-color="#3DA92E"/>
<stop offset="1" stop-color="#3DAE2B"/>
</linearGradient>
<linearGradient id="paint1_linear_66_1054" x1="12.3477" y1="15.4666" x2="40.1302" y2="-5.06061" gradientUnits="userSpaceOnUse">
<stop offset="0.138" stop-color="#3F873F"/>
<stop offset="0.402" stop-color="#52A044"/>
<stop offset="0.713" stop-color="#64B749"/>
<stop offset="0.908" stop-color="#6ABF4B"/>
</linearGradient>
<linearGradient id="paint2_linear_66_1054" x1="1.31399" y1="13.9993" x2="26.6478" y2="13.9993" gradientUnits="userSpaceOnUse">
<stop offset="0.092" stop-color="#6ABF4B"/>
<stop offset="0.287" stop-color="#64B749"/>
<stop offset="0.598" stop-color="#52A044"/>
<stop offset="0.862" stop-color="#3F873F"/>
</linearGradient>
<clipPath id="clip0_66_1054">
<rect width="28" height="28" fill="white"/>
</clipPath>
</defs>
</svg>
