<svg width="32" height="28" viewBox="0 0 32 28" fill="none" xmlns="http://www.w3.org/2000/svg">
<g id="Frame" clip-path="url(#clip0_66_1046)">
<path id="Vector" d="M15.5555 16.963C17.1919 16.963 18.5185 15.6365 18.5185 14.0001C18.5185 12.3637 17.1919 11.0371 15.5555 11.0371C13.9191 11.0371 12.5925 12.3637 12.5925 14.0001C12.5925 15.6365 13.9191 16.963 15.5555 16.963Z" fill="#149ECA"/>
<g id="Group">
<path id="Vector_2" d="M15.5555 20.6666C23.7375 20.6666 30.3703 17.6818 30.3703 13.9999C30.3703 10.318 23.7375 7.33325 15.5555 7.33325C7.37354 7.33325 0.740723 10.318 0.740723 13.9999C0.740723 17.6818 7.37354 20.6666 15.5555 20.6666Z" stroke="#149ECA" stroke-width="1.11111"/>
<path id="Vector_3" d="M9.78203 17.3333C13.873 24.4191 19.7743 28.6709 22.9629 26.83C26.1516 24.9891 25.42 17.7525 21.329 10.6667C17.238 3.58086 11.3367 -0.670947 8.14813 1.17C4.95951 3.01095 5.69104 10.2475 9.78203 17.3333Z" stroke="#149ECA" stroke-width="1.11111"/>
<path id="Vector_4" d="M9.78217 10.6668C5.69117 17.7526 4.95965 24.9891 8.14827 26.8301C11.3369 28.671 17.2382 24.4192 21.3292 17.3334C25.4202 10.2476 26.1517 3.01103 22.9631 1.17009C19.7745 -0.670862 13.8732 3.58094 9.78217 10.6668Z" stroke="#149ECA" stroke-width="1.11111"/>
</g>
</g>
<defs>
<clipPath id="clip0_66_1046">
<rect width="31.1111" height="28" fill="white"/>
</clipPath>
</defs>
</svg>
